<svg xmlns="http://www.w3.org/2000/svg" viewBox="0 0 880 916" width="880" height="916" font-family="system-ui,-apple-system,'Segoe UI',Roboto,sans-serif">
<rect x="0" y="0" width="880" height="916" rx="14" fill="#ffffff" stroke="#dde3e9"/>
<text x="28" y="34" font-family="system-ui,-apple-system,'Segoe UI',Roboto,sans-serif" font-size="19" font-weight="700" fill="#1a2230">Convolver CPU across the full DAW buffer range</text>
<text x="28" y="55" font-family="ui-monospace,'SF Mono',Menlo,Consolas,monospace" font-size="11.5" fill="#8a95a0">MatrixConvolverNupc vs juce::dsp::Convolution 8.0.4 · 131072-tap stereo (LRDiag) · 48 kHz · mean %RT = CPU ÷ audio time</text>
<line x1="28" y1="76" x2="50" y2="76" stroke="#2a78d6" stroke-width="2.6" opacity="1"/>
<text x="56" y="80" font-family="system-ui,-apple-system,'Segoe UI',Roboto,sans-serif" font-size="12" fill="#55606b">NUPC mean</text>
<line x1="147.0" y1="76" x2="169.0" y2="76" stroke="#2a78d6" stroke-width="8" opacity="0.22"/>
<text x="175.0" y="80" font-family="system-ui,-apple-system,'Segoe UI',Roboto,sans-serif" font-size="12" fill="#55606b">NUPC worst buffer (band)</text>
<line x1="371.0" y1="76" x2="393.0" y2="76" stroke="#eb6834" stroke-width="2.6" opacity="1"/>
<text x="399.0" y="80" font-family="system-ui,-apple-system,'Segoe UI',Roboto,sans-serif" font-size="12" fill="#55606b">juce::dsp::Convolution</text>
<line x1="581.0" y1="76" x2="603.0" y2="76" stroke="#d03b3b" stroke-width="2.6" opacity="1" stroke-dasharray="5 3"/>
<text x="609.0" y="80" font-family="system-ui,-apple-system,'Segoe UI',Roboto,sans-serif" font-size="12" fill="#55606b">100% real-time</text>
<text x="52" y="114" font-family="system-ui,-apple-system,'Segoe UI',Roboto,sans-serif" font-size="16" font-weight="700" fill="#1a2230">Intel i9-13900H</text>
<text x="52" y="132" font-family="ui-monospace,'SF Mono',Menlo,Consolas,monospace" font-size="11.5" fill="#8a95a0">Debian 13 · gcc 14 · pffft/SSE · P-core pinned</text>
<text x="52" y="148" font-family="ui-monospace,'SF Mono',Menlo,Consolas,monospace" font-size="11.5" fill="#55606b">NUPC flat mean 1.08%  ·  JUCE 0.67–72.6%  ·  NUPC cheaper up to ~4096 samples  ·  0 ms latency</text>
<rect x="52.0" y="158.0" width="719.5" height="300" fill="#2a78d6" opacity="0.055"/>
<line x1="771.5" y1="158.0" x2="771.5" y2="458.0" stroke="#8a95a0" stroke-width="1" stroke-dasharray="4 4" opacity="0.5"/>
<text x="58.0" y="172.0" font-family="ui-monospace,'SF Mono',Menlo,Consolas,monospace" font-size="11" fill="#2a78d6">◄ NUPC cheaper (mean)</text>
<line x1="52.0" y1="430.6" x2="772.0" y2="430.6" stroke="#e6ebf0" stroke-width="1"/>
<text x="44.0" y="434.6" font-family="ui-monospace,'SF Mono',Menlo,Consolas,monospace" font-size="11" fill="#8a95a0" text-anchor="end">0.3%</text>
<line x1="52.0" y1="383.1" x2="772.0" y2="383.1" stroke="#e6ebf0" stroke-width="1"/>
<text x="44.0" y="387.1" font-family="ui-monospace,'SF Mono',Menlo,Consolas,monospace" font-size="11" fill="#8a95a0" text-anchor="end">1%</text>
<line x1="52.0" y1="339.8" x2="772.0" y2="339.8" stroke="#e6ebf0" stroke-width="1"/>
<text x="44.0" y="343.8" font-family="ui-monospace,'SF Mono',Menlo,Consolas,monospace" font-size="11" fill="#8a95a0" text-anchor="end">3%</text>
<line x1="52.0" y1="292.2" x2="772.0" y2="292.2" stroke="#e6ebf0" stroke-width="1"/>
<text x="44.0" y="296.2" font-family="ui-monospace,'SF Mono',Menlo,Consolas,monospace" font-size="11" fill="#8a95a0" text-anchor="end">10%</text>
<line x1="52.0" y1="248.9" x2="772.0" y2="248.9" stroke="#e6ebf0" stroke-width="1"/>
<text x="44.0" y="252.9" font-family="ui-monospace,'SF Mono',Menlo,Consolas,monospace" font-size="11" fill="#8a95a0" text-anchor="end">30%</text>
<line x1="52.0" y1="201.4" x2="772.0" y2="201.4" stroke="#d03b3b" stroke-width="1.4" stroke-dasharray="6 4"/>
<text x="44.0" y="205.4" font-family="ui-monospace,'SF Mono',Menlo,Consolas,monospace" font-size="11" fill="#8a95a0" text-anchor="end">100%</text>
<line x1="52.0" y1="158.0" x2="772.0" y2="158.0" stroke="#e6ebf0" stroke-width="1"/>
<text x="44.0" y="162.0" font-family="ui-monospace,'SF Mono',Menlo,Consolas,monospace" font-size="11" fill="#8a95a0" text-anchor="end">300%</text>
<text x="770.0" y="196.4" font-family="ui-monospace,'SF Mono',Menlo,Consolas,monospace" font-size="11" fill="#d03b3b" text-anchor="end">100% real-time</text>
<text x="52.0" y="477.0" font-family="ui-monospace,'SF Mono',Menlo,Consolas,monospace" font-size="11" fill="#8a95a0" text-anchor="middle">16</text>
<text x="142.0" y="477.0" font-family="ui-monospace,'SF Mono',Menlo,Consolas,monospace" font-size="11" fill="#8a95a0" text-anchor="middle">32</text>
<text x="232.0" y="477.0" font-family="ui-monospace,'SF Mono',Menlo,Consolas,monospace" font-size="11" fill="#8a95a0" text-anchor="middle">64</text>
<text x="322.0" y="477.0" font-family="ui-monospace,'SF Mono',Menlo,Consolas,monospace" font-size="11" fill="#8a95a0" text-anchor="middle">128</text>
<text x="412.0" y="477.0" font-family="ui-monospace,'SF Mono',Menlo,Consolas,monospace" font-size="11" fill="#8a95a0" text-anchor="middle">256</text>
<text x="502.0" y="477.0" font-family="ui-monospace,'SF Mono',Menlo,Consolas,monospace" font-size="11" fill="#8a95a0" text-anchor="middle">512</text>
<text x="592.0" y="477.0" font-family="ui-monospace,'SF Mono',Menlo,Consolas,monospace" font-size="11" fill="#8a95a0" text-anchor="middle">1024</text>
<text x="682.0" y="477.0" font-family="ui-monospace,'SF Mono',Menlo,Consolas,monospace" font-size="11" fill="#8a95a0" text-anchor="middle">2048</text>
<text x="772.0" y="477.0" font-family="ui-monospace,'SF Mono',Menlo,Consolas,monospace" font-size="11" fill="#8a95a0" text-anchor="middle">4096</text>
<text x="412.0" y="496.0" font-family="ui-monospace,'SF Mono',Menlo,Consolas,monospace" font-size="11" fill="#55606b" text-anchor="middle">host buffer size (samples, log scale · measured every 32)</text>
<path d="M52.0 379.4 L142.0 379.7 L232.0 379.7 L284.6 369.3 L322.0 380.1 L351.0 379.7 L374.6 380.5 L394.7 380.1 L412.0 380.1 L427.3 380.5 L441.0 380.1 L453.3 379.7 L464.6 380.8 L475.0 380.1 L484.7 380.8 L493.6 379.7 L502.0 379.7 L509.9 380.5 L517.3 380.5 L524.3 380.1 L531.0 380.5 L537.3 380.1 L543.3 380.1 L549.1 380.1 L554.6 380.1 L559.9 380.5 L565.0 380.8 L569.9 379.7 L574.7 380.1 L579.2 380.1 L583.6 380.1 L587.9 380.1 L592.0 379.7 L596.0 379.7 L599.9 380.1 L603.6 380.5 L607.3 379.7 L610.9 379.7 L614.3 380.8 L617.7 380.8 L621.0 379.7 L624.2 380.1 L627.3 379.7 L630.4 379.7 L633.3 380.8 L636.3 380.5 L639.1 379.7 L641.9 380.1 L644.6 379.7 L647.3 380.8 L649.9 380.1 L652.5 380.1 L655.0 379.7 L657.5 380.5 L659.9 381.2 L662.3 380.1 L664.7 380.5 L667.0 380.1 L669.2 379.7 L671.4 379.7 L673.6 380.8 L675.8 380.5 L677.9 379.7 L680.0 379.7 L682.0 379.7 L684.0 380.8 L686.0 380.5 L687.9 380.1 L689.9 380.1 L691.8 380.5 L693.6 380.5 L695.5 379.7 L697.3 379.7 L699.1 380.8 L700.9 380.1 L702.6 379.7 L704.3 380.8 L706.0 379.7 L707.7 380.5 L709.3 380.1 L711.0 380.5 L712.6 379.7 L714.2 380.1 L715.8 380.1 L717.3 380.5 L718.8 380.5 L720.4 380.1 L721.9 379.7 L723.3 380.5 L724.8 380.5 L726.3 380.1 L727.7 380.8 L729.1 380.1 L730.5 379.7 L731.9 379.7 L733.3 379.4 L734.6 380.8 L736.0 379.7 L737.3 379.7 L738.6 380.8 L739.9 380.1 L741.2 380.1 L742.5 380.5 L743.8 380.5 L745.0 380.5 L746.3 380.1 L747.5 380.1 L748.7 380.1 L749.9 380.1 L751.1 379.7 L752.3 380.5 L753.5 380.5 L754.7 380.5 L755.8 379.7 L757.0 380.5 L758.1 380.1 L759.2 379.7 L760.3 380.5 L761.4 380.1 L762.5 379.7 L763.6 380.5 L764.7 379.7 L765.8 380.1 L766.8 380.5 L767.9 380.1 L768.9 380.8 L770.0 379.7 L771.0 380.1 L772.0 380.1 L772.0 380.1 L771.0 379.7 L770.0 379.7 L768.9 379.7 L767.9 379.7 L766.8 379.4 L765.8 379.4 L764.7 379.0 L763.6 379.4 L762.5 378.6 L761.4 378.6 L760.3 379.4 L759.2 378.3 L758.1 378.3 L757.0 378.6 L755.8 378.6 L754.7 378.6 L753.5 378.0 L752.3 378.3 L751.1 378.0 L749.9 378.0 L748.7 377.6 L747.5 377.3 L746.3 377.3 L745.0 376.9 L743.8 376.9 L742.5 377.3 L741.2 376.6 L739.9 376.9 L738.6 377.3 L737.3 376.6 L736.0 376.3 L734.6 376.6 L733.3 376.6 L731.9 376.3 L730.5 376.3 L729.1 375.9 L727.7 376.9 L726.3 375.6 L724.8 375.9 L723.3 375.3 L721.9 375.3 L720.4 375.6 L718.8 375.0 L717.3 375.0 L715.8 374.6 L714.2 375.3 L712.6 374.0 L711.0 374.6 L709.3 374.3 L707.7 374.0 L706.0 373.4 L704.3 373.1 L702.6 373.1 L700.9 372.8 L699.1 373.4 L697.3 372.5 L695.5 372.5 L693.6 372.2 L691.8 371.9 L689.9 371.9 L687.9 372.2 L686.0 371.3 L684.0 379.7 L682.0 379.4 L680.0 379.0 L677.9 379.0 L675.8 379.0 L673.6 378.3 L671.4 378.3 L669.2 378.0 L667.0 378.0 L664.7 378.3 L662.3 377.6 L659.9 378.0 L657.5 375.3 L655.0 376.6 L652.5 376.3 L649.9 375.9 L647.3 377.3 L644.6 376.3 L641.9 374.6 L639.1 375.6 L636.3 375.6 L633.3 374.6 L630.4 374.0 L627.3 373.7 L624.2 373.4 L621.0 373.1 L617.7 373.1 L614.3 372.8 L610.9 372.2 L607.3 371.6 L603.6 371.3 L599.9 371.0 L596.0 370.1 L592.0 370.7 L587.9 369.8 L583.6 369.6 L579.2 368.7 L574.7 368.2 L569.9 367.6 L565.0 365.6 L559.9 366.9 L554.6 365.6 L549.1 365.1 L543.3 363.6 L537.3 361.5 L531.0 362.4 L524.3 359.9 L517.3 359.1 L509.9 357.4 L502.0 356.8 L493.6 355.8 L484.7 353.8 L475.0 351.6 L464.6 349.1 L453.3 347.0 L441.0 345.1 L427.3 342.3 L412.0 337.8 L394.7 333.9 L374.6 328.4 L351.0 322.6 L322.0 314.5 L284.6 278.2 L232.0 289.8 L142.0 263.9 L52.0 237.5 Z" fill="#2a78d6" opacity="0.10"/>
<path d="M52.0 214.0 L142.0 247.6 L232.0 280.7 L284.6 308.2 L322.0 312.6 L351.0 323.0 L374.6 324.3 L394.7 324.1 L412.0 327.1 L427.3 345.9 L441.0 347.4 L453.3 347.8 L464.6 349.6 L475.0 348.6 L484.7 349.6 L493.6 349.9 L502.0 355.4 L509.9 358.4 L517.3 360.1 L524.3 359.7 L531.0 362.2 L537.3 361.7 L543.3 362.4 L549.1 362.4 L554.6 365.8 L559.9 363.6 L565.0 364.8 L569.9 364.1 L574.7 365.3 L579.2 365.6 L583.6 365.8 L587.9 366.3 L592.0 377.3 L596.0 367.9 L599.9 368.5 L603.6 369.3 L607.3 371.3 L610.9 371.0 L614.3 371.3 L617.7 371.9 L621.0 373.7 L624.2 372.5 L627.3 372.8 L630.4 373.4 L633.3 373.7 L636.3 374.3 L639.1 374.6 L641.9 374.0 L644.6 379.4 L647.3 375.0 L649.9 376.3 L652.5 374.6 L655.0 376.6 L657.5 376.6 L659.9 376.9 L662.3 376.9 L664.7 378.3 L667.0 377.6 L669.2 377.6 L671.4 376.6 L673.6 379.7 L675.8 377.3 L677.9 379.4 L680.0 378.3 L682.0 394.5 L684.0 364.3 L686.0 365.6 L687.9 364.6 L689.9 365.3 L691.8 366.6 L693.6 365.6 L695.5 366.1 L697.3 369.6 L699.1 367.9 L700.9 369.6 L702.6 367.4 L704.3 369.8 L706.0 369.3 L707.7 370.7 L709.3 369.3 L711.0 372.2 L712.6 370.1 L714.2 371.9 L715.8 369.6 L717.3 371.9 L718.8 371.0 L720.4 371.0 L721.9 371.9 L723.3 371.9 L724.8 371.6 L726.3 371.6 L727.7 372.5 L729.1 374.0 L730.5 371.6 L731.9 372.5 L733.3 372.8 L734.6 379.0 L736.0 373.7 L737.3 374.0 L738.6 372.8 L739.9 372.5 L741.2 374.0 L742.5 372.5 L743.8 374.6 L745.0 374.3 L746.3 375.3 L747.5 374.0 L748.7 374.3 L749.9 375.0 L751.1 375.3 L752.3 375.6 L753.5 375.9 L754.7 375.9 L755.8 376.9 L757.0 375.3 L758.1 375.6 L759.2 375.9 L760.3 376.3 L761.4 374.6 L762.5 376.9 L763.6 378.6 L764.7 375.6 L765.8 378.0 L766.8 376.3 L767.9 376.6 L768.9 379.0 L770.0 377.3 L771.0 377.6 L772.0 398.9" fill="none" stroke="#eb6834" stroke-width="2" stroke-linejoin="round"/>
<path d="M52.0 379.4 L142.0 379.7 L232.0 379.7 L284.6 369.3 L322.0 380.1 L351.0 379.7 L374.6 380.5 L394.7 380.1 L412.0 380.1 L427.3 380.5 L441.0 380.1 L453.3 379.7 L464.6 380.8 L475.0 380.1 L484.7 380.8 L493.6 379.7 L502.0 379.7 L509.9 380.5 L517.3 380.5 L524.3 380.1 L531.0 380.5 L537.3 380.1 L543.3 380.1 L549.1 380.1 L554.6 380.1 L559.9 380.5 L565.0 380.8 L569.9 379.7 L574.7 380.1 L579.2 380.1 L583.6 380.1 L587.9 380.1 L592.0 379.7 L596.0 379.7 L599.9 380.1 L603.6 380.5 L607.3 379.7 L610.9 379.7 L614.3 380.8 L617.7 380.8 L621.0 379.7 L624.2 380.1 L627.3 379.7 L630.4 379.7 L633.3 380.8 L636.3 380.5 L639.1 379.7 L641.9 380.1 L644.6 379.7 L647.3 380.8 L649.9 380.1 L652.5 380.1 L655.0 379.7 L657.5 380.5 L659.9 381.2 L662.3 380.1 L664.7 380.5 L667.0 380.1 L669.2 379.7 L671.4 379.7 L673.6 380.8 L675.8 380.5 L677.9 379.7 L680.0 379.7 L682.0 379.7 L684.0 380.8 L686.0 380.5 L687.9 380.1 L689.9 380.1 L691.8 380.5 L693.6 380.5 L695.5 379.7 L697.3 379.7 L699.1 380.8 L700.9 380.1 L702.6 379.7 L704.3 380.8 L706.0 379.7 L707.7 380.5 L709.3 380.1 L711.0 380.5 L712.6 379.7 L714.2 380.1 L715.8 380.1 L717.3 380.5 L718.8 380.5 L720.4 380.1 L721.9 379.7 L723.3 380.5 L724.8 380.5 L726.3 380.1 L727.7 380.8 L729.1 380.1 L730.5 379.7 L731.9 379.7 L733.3 379.4 L734.6 380.8 L736.0 379.7 L737.3 379.7 L738.6 380.8 L739.9 380.1 L741.2 380.1 L742.5 380.5 L743.8 380.5 L745.0 380.5 L746.3 380.1 L747.5 380.1 L748.7 380.1 L749.9 380.1 L751.1 379.7 L752.3 380.5 L753.5 380.5 L754.7 380.5 L755.8 379.7 L757.0 380.5 L758.1 380.1 L759.2 379.7 L760.3 380.5 L761.4 380.1 L762.5 379.7 L763.6 380.5 L764.7 379.7 L765.8 380.1 L766.8 380.5 L767.9 380.1 L768.9 380.8 L770.0 379.7 L771.0 380.1 L772.0 380.1" fill="none" stroke="#2a78d6" stroke-width="2" stroke-linejoin="round"/>
<text x="781.0" y="384.1" font-family="ui-monospace,'SF Mono',Menlo,Consolas,monospace" font-size="12" font-weight="600" fill="#2a78d6">NUPC 1.1%</text>
<text x="781.0" y="402.9" font-family="ui-monospace,'SF Mono',Menlo,Consolas,monospace" font-size="12" font-weight="600" fill="#eb6834">JUCE 0.7%</text>
<text x="58.0" y="207.0" font-family="ui-monospace,'SF Mono',Menlo,Consolas,monospace" font-size="12" font-weight="600" fill="#eb6834">73%</text>
<text x="52" y="526" font-family="system-ui,-apple-system,'Segoe UI',Roboto,sans-serif" font-size="16" font-weight="700" fill="#1a2230">Apple M5 Pro</text>
<text x="52" y="544" font-family="ui-monospace,'SF Mono',Menlo,Consolas,monospace" font-size="11.5" fill="#8a95a0">macOS · pffft/NEON · P-core</text>
<text x="52" y="560" font-family="ui-monospace,'SF Mono',Menlo,Consolas,monospace" font-size="11.5" fill="#55606b">NUPC flat mean 0.60%  ·  JUCE 0.19–95.7%  ·  NUPC cheaper up to ~544 samples  ·  0 ms latency</text>
<rect x="52.0" y="570.0" width="453.9" height="300" fill="#2a78d6" opacity="0.055"/>
<line x1="505.9" y1="570.0" x2="505.9" y2="870.0" stroke="#8a95a0" stroke-width="1" stroke-dasharray="4 4" opacity="0.5"/>
<text x="58.0" y="584.0" font-family="ui-monospace,'SF Mono',Menlo,Consolas,monospace" font-size="11" fill="#2a78d6">◄ NUPC cheaper (mean)</text>
<text x="512.9" y="584.0" font-family="ui-monospace,'SF Mono',Menlo,Consolas,monospace" font-size="11" fill="#eb6834">JUCE cheaper ►</text>
<line x1="52.0" y1="842.6" x2="772.0" y2="842.6" stroke="#e6ebf0" stroke-width="1"/>
<text x="44.0" y="846.6" font-family="ui-monospace,'SF Mono',Menlo,Consolas,monospace" font-size="11" fill="#8a95a0" text-anchor="end">0.3%</text>
<line x1="52.0" y1="795.1" x2="772.0" y2="795.1" stroke="#e6ebf0" stroke-width="1"/>
<text x="44.0" y="799.1" font-family="ui-monospace,'SF Mono',Menlo,Consolas,monospace" font-size="11" fill="#8a95a0" text-anchor="end">1%</text>
<line x1="52.0" y1="751.8" x2="772.0" y2="751.8" stroke="#e6ebf0" stroke-width="1"/>
<text x="44.0" y="755.8" font-family="ui-monospace,'SF Mono',Menlo,Consolas,monospace" font-size="11" fill="#8a95a0" text-anchor="end">3%</text>
<line x1="52.0" y1="704.2" x2="772.0" y2="704.2" stroke="#e6ebf0" stroke-width="1"/>
<text x="44.0" y="708.2" font-family="ui-monospace,'SF Mono',Menlo,Consolas,monospace" font-size="11" fill="#8a95a0" text-anchor="end">10%</text>
<line x1="52.0" y1="660.9" x2="772.0" y2="660.9" stroke="#e6ebf0" stroke-width="1"/>
<text x="44.0" y="664.9" font-family="ui-monospace,'SF Mono',Menlo,Consolas,monospace" font-size="11" fill="#8a95a0" text-anchor="end">30%</text>
<line x1="52.0" y1="613.4" x2="772.0" y2="613.4" stroke="#d03b3b" stroke-width="1.4" stroke-dasharray="6 4"/>
<text x="44.0" y="617.4" font-family="ui-monospace,'SF Mono',Menlo,Consolas,monospace" font-size="11" fill="#8a95a0" text-anchor="end">100%</text>
<line x1="52.0" y1="570.0" x2="772.0" y2="570.0" stroke="#e6ebf0" stroke-width="1"/>
<text x="44.0" y="574.0" font-family="ui-monospace,'SF Mono',Menlo,Consolas,monospace" font-size="11" fill="#8a95a0" text-anchor="end">300%</text>
<text x="770.0" y="608.4" font-family="ui-monospace,'SF Mono',Menlo,Consolas,monospace" font-size="11" fill="#d03b3b" text-anchor="end">100% real-time</text>
<text x="52.0" y="889.0" font-family="ui-monospace,'SF Mono',Menlo,Consolas,monospace" font-size="11" fill="#8a95a0" text-anchor="middle">16</text>
<text x="142.0" y="889.0" font-family="ui-monospace,'SF Mono',Menlo,Consolas,monospace" font-size="11" fill="#8a95a0" text-anchor="middle">32</text>
<text x="232.0" y="889.0" font-family="ui-monospace,'SF Mono',Menlo,Consolas,monospace" font-size="11" fill="#8a95a0" text-anchor="middle">64</text>
<text x="322.0" y="889.0" font-family="ui-monospace,'SF Mono',Menlo,Consolas,monospace" font-size="11" fill="#8a95a0" text-anchor="middle">128</text>
<text x="412.0" y="889.0" font-family="ui-monospace,'SF Mono',Menlo,Consolas,monospace" font-size="11" fill="#8a95a0" text-anchor="middle">256</text>
<text x="502.0" y="889.0" font-family="ui-monospace,'SF Mono',Menlo,Consolas,monospace" font-size="11" fill="#8a95a0" text-anchor="middle">512</text>
<text x="592.0" y="889.0" font-family="ui-monospace,'SF Mono',Menlo,Consolas,monospace" font-size="11" fill="#8a95a0" text-anchor="middle">1024</text>
<text x="682.0" y="889.0" font-family="ui-monospace,'SF Mono',Menlo,Consolas,monospace" font-size="11" fill="#8a95a0" text-anchor="middle">2048</text>
<text x="772.0" y="889.0" font-family="ui-monospace,'SF Mono',Menlo,Consolas,monospace" font-size="11" fill="#8a95a0" text-anchor="middle">4096</text>
<text x="412.0" y="908.0" font-family="ui-monospace,'SF Mono',Menlo,Consolas,monospace" font-size="11" fill="#55606b" text-anchor="middle">host buffer size (samples, log scale · measured every 32)</text>
<path d="M52.0 815.9 L142.0 813.4 L232.0 815.9 L284.6 815.9 L322.0 814.6 L351.0 815.9 L374.6 816.6 L394.7 813.4 L412.0 816.6 L427.3 816.6 L441.0 815.3 L453.3 816.6 L464.6 812.7 L475.0 815.3 L484.7 810.9 L493.6 815.3 L502.0 816.6 L509.9 814.6 L517.3 816.6 L524.3 815.9 L531.0 815.3 L537.3 816.6 L543.3 816.6 L549.1 816.6 L554.6 816.6 L559.9 815.9 L565.0 814.0 L569.9 815.9 L574.7 815.9 L579.2 816.6 L583.6 815.9 L587.9 812.7 L592.0 815.9 L596.0 815.3 L599.9 814.0 L603.6 816.6 L607.3 816.6 L610.9 813.4 L614.3 815.9 L617.7 816.6 L621.0 816.6 L624.2 814.6 L627.3 815.9 L630.4 815.3 L633.3 815.9 L636.3 812.1 L639.1 815.3 L641.9 815.3 L644.6 814.6 L647.3 816.6 L649.9 815.3 L652.5 816.6 L655.0 815.3 L657.5 815.3 L659.9 815.3 L662.3 816.6 L664.7 815.3 L667.0 814.0 L669.2 813.4 L671.4 812.7 L673.6 815.3 L675.8 815.3 L677.9 815.3 L680.0 814.6 L682.0 816.6 L684.0 817.3 L686.0 816.6 L687.9 815.9 L689.9 813.4 L691.8 815.9 L693.6 815.9 L695.5 815.3 L697.3 814.0 L699.1 815.9 L700.9 815.9 L702.6 815.9 L704.3 814.6 L706.0 816.6 L707.7 812.7 L709.3 814.6 L711.0 815.3 L712.6 815.9 L714.2 816.6 L715.8 816.6 L717.3 815.9 L718.8 816.6 L720.4 812.1 L721.9 815.3 L723.3 816.6 L724.8 813.4 L726.3 815.9 L727.7 815.9 L729.1 816.6 L730.5 815.9 L731.9 814.0 L733.3 815.3 L734.6 815.9 L736.0 815.3 L737.3 816.6 L738.6 817.3 L739.9 815.3 L741.2 815.3 L742.5 815.3 L743.8 815.3 L745.0 815.9 L746.3 810.3 L747.5 815.3 L748.7 814.6 L749.9 815.9 L751.1 815.3 L752.3 814.6 L753.5 815.9 L754.7 815.9 L755.8 816.6 L757.0 816.6 L758.1 814.0 L759.2 814.6 L760.3 815.3 L761.4 816.6 L762.5 814.6 L763.6 817.3 L764.7 814.6 L765.8 815.3 L766.8 815.9 L767.9 815.9 L768.9 816.6 L770.0 814.0 L771.0 815.9 L772.0 815.9 L772.0 813.4 L771.0 812.7 L770.0 804.4 L768.9 812.1 L767.9 812.7 L766.8 804.4 L765.8 803.4 L764.7 806.0 L763.6 814.6 L762.5 812.7 L761.4 814.0 L760.3 812.7 L759.2 807.0 L758.1 812.1 L757.0 809.2 L755.8 808.6 L754.7 812.7 L753.5 810.9 L752.3 798.8 L751.1 810.9 L749.9 811.5 L748.7 812.7 L747.5 808.1 L746.3 801.5 L745.0 808.1 L743.8 802.0 L742.5 809.8 L741.2 812.7 L739.9 807.0 L738.6 810.9 L737.3 800.2 L736.0 803.9 L734.6 810.9 L733.3 811.5 L731.9 808.6 L730.5 806.5 L729.1 809.8 L727.7 808.6 L726.3 803.0 L724.8 805.4 L723.3 809.2 L721.9 810.9 L720.4 807.5 L718.8 807.5 L717.3 809.8 L715.8 793.2 L714.2 797.1 L712.6 812.1 L711.0 810.3 L709.3 798.8 L707.7 804.4 L706.0 803.4 L704.3 806.0 L702.6 808.1 L700.9 802.5 L699.1 811.5 L697.3 808.1 L695.5 807.0 L693.6 804.9 L691.8 806.5 L689.9 810.9 L687.9 808.6 L686.0 805.4 L684.0 811.5 L682.0 812.1 L680.0 798.4 L677.9 804.4 L675.8 810.3 L673.6 809.8 L671.4 809.2 L669.2 795.9 L667.0 807.5 L664.7 796.3 L662.3 806.5 L659.9 809.8 L657.5 804.9 L655.0 807.5 L652.5 809.2 L649.9 806.5 L647.3 807.5 L644.6 788.6 L641.9 793.6 L639.1 804.9 L636.3 803.9 L633.3 808.1 L630.4 807.0 L627.3 798.8 L624.2 792.1 L621.0 803.4 L617.7 802.5 L614.3 805.4 L610.9 784.8 L607.3 794.0 L603.6 804.9 L599.9 797.6 L596.0 801.1 L592.0 801.5 L587.9 794.7 L583.6 788.6 L579.2 799.7 L574.7 799.7 L569.9 794.3 L565.0 791.4 L559.9 795.9 L554.6 791.4 L549.1 794.7 L543.3 787.3 L537.3 789.3 L531.0 794.0 L524.3 791.7 L517.3 791.4 L509.9 787.3 L502.0 785.7 L493.6 781.0 L484.7 777.3 L475.0 779.9 L464.6 776.3 L453.3 773.3 L441.0 752.0 L427.3 761.4 L412.0 760.2 L394.7 764.7 L374.6 742.7 L351.0 752.0 L322.0 743.8 L284.6 711.1 L232.0 719.8 L142.0 694.4 L52.0 674.7 Z" fill="#2a78d6" opacity="0.10"/>
<path d="M52.0 615.1 L142.0 659.7 L232.0 707.4 L284.6 751.0 L322.0 753.6 L351.0 768.8 L374.6 768.0 L394.7 767.6 L412.0 770.4 L427.3 794.0 L441.0 791.4 L453.3 795.9 L464.6 796.7 L475.0 793.6 L484.7 794.3 L493.6 798.0 L502.0 799.7 L509.9 816.6 L517.3 818.0 L524.3 815.9 L531.0 818.0 L537.3 817.3 L543.3 815.9 L549.1 814.6 L554.6 819.4 L559.9 817.3 L565.0 818.0 L569.9 815.9 L574.7 818.7 L579.2 820.2 L583.6 820.2 L587.9 820.2 L592.0 820.9 L596.0 831.3 L599.9 828.4 L603.6 830.3 L607.3 831.3 L610.9 833.3 L614.3 834.4 L617.7 830.3 L621.0 833.3 L624.2 832.3 L627.3 834.4 L630.4 833.3 L633.3 834.4 L636.3 835.4 L639.1 833.3 L641.9 835.4 L644.6 836.6 L647.3 833.3 L649.9 837.7 L652.5 835.4 L655.0 836.6 L657.5 829.4 L659.9 834.4 L662.3 837.7 L664.7 835.4 L667.0 838.9 L669.2 835.4 L671.4 836.6 L673.6 840.1 L675.8 838.9 L677.9 838.9 L680.0 836.6 L682.0 846.8 L684.0 838.9 L686.0 841.3 L687.9 840.1 L689.9 841.3 L691.8 837.7 L693.6 840.1 L695.5 842.6 L697.3 844.0 L699.1 844.0 L700.9 844.0 L702.6 840.1 L704.3 844.0 L706.0 842.6 L707.7 845.4 L709.3 844.0 L711.0 846.8 L712.6 845.4 L714.2 842.6 L715.8 844.0 L717.3 845.4 L718.8 845.4 L720.4 845.4 L721.9 842.6 L723.3 845.4 L724.8 845.4 L726.3 844.0 L727.7 845.4 L729.1 848.3 L730.5 842.6 L731.9 846.8 L733.3 842.6 L734.6 851.4 L736.0 848.3 L737.3 848.3 L738.6 845.4 L739.9 845.4 L741.2 848.3 L742.5 842.6 L743.8 848.3 L745.0 845.4 L746.3 848.3 L747.5 846.8 L748.7 848.3 L749.9 848.3 L751.1 849.8 L752.3 848.3 L753.5 845.4 L754.7 848.3 L755.8 849.8 L757.0 848.3 L758.1 848.3 L759.2 848.3 L760.3 848.3 L761.4 846.8 L762.5 848.3 L763.6 848.3 L764.7 846.8 L765.8 848.3 L766.8 848.3 L767.9 849.8 L768.9 851.4 L770.0 848.3 L771.0 848.3 L772.0 860.7" fill="none" stroke="#eb6834" stroke-width="2" stroke-linejoin="round"/>
<path d="M52.0 815.9 L142.0 813.4 L232.0 815.9 L284.6 815.9 L322.0 814.6 L351.0 815.9 L374.6 816.6 L394.7 813.4 L412.0 816.6 L427.3 816.6 L441.0 815.3 L453.3 816.6 L464.6 812.7 L475.0 815.3 L484.7 810.9 L493.6 815.3 L502.0 816.6 L509.9 814.6 L517.3 816.6 L524.3 815.9 L531.0 815.3 L537.3 816.6 L543.3 816.6 L549.1 816.6 L554.6 816.6 L559.9 815.9 L565.0 814.0 L569.9 815.9 L574.7 815.9 L579.2 816.6 L583.6 815.9 L587.9 812.7 L592.0 815.9 L596.0 815.3 L599.9 814.0 L603.6 816.6 L607.3 816.6 L610.9 813.4 L614.3 815.9 L617.7 816.6 L621.0 816.6 L624.2 814.6 L627.3 815.9 L630.4 815.3 L633.3 815.9 L636.3 812.1 L639.1 815.3 L641.9 815.3 L644.6 814.6 L647.3 816.6 L649.9 815.3 L652.5 816.6 L655.0 815.3 L657.5 815.3 L659.9 815.3 L662.3 816.6 L664.7 815.3 L667.0 814.0 L669.2 813.4 L671.4 812.7 L673.6 815.3 L675.8 815.3 L677.9 815.3 L680.0 814.6 L682.0 816.6 L684.0 817.3 L686.0 816.6 L687.9 815.9 L689.9 813.4 L691.8 815.9 L693.6 815.9 L695.5 815.3 L697.3 814.0 L699.1 815.9 L700.9 815.9 L702.6 815.9 L704.3 814.6 L706.0 816.6 L707.7 812.7 L709.3 814.6 L711.0 815.3 L712.6 815.9 L714.2 816.6 L715.8 816.6 L717.3 815.9 L718.8 816.6 L720.4 812.1 L721.9 815.3 L723.3 816.6 L724.8 813.4 L726.3 815.9 L727.7 815.9 L729.1 816.6 L730.5 815.9 L731.9 814.0 L733.3 815.3 L734.6 815.9 L736.0 815.3 L737.3 816.6 L738.6 817.3 L739.9 815.3 L741.2 815.3 L742.5 815.3 L743.8 815.3 L745.0 815.9 L746.3 810.3 L747.5 815.3 L748.7 814.6 L749.9 815.9 L751.1 815.3 L752.3 814.6 L753.5 815.9 L754.7 815.9 L755.8 816.6 L757.0 816.6 L758.1 814.0 L759.2 814.6 L760.3 815.3 L761.4 816.6 L762.5 814.6 L763.6 817.3 L764.7 814.6 L765.8 815.3 L766.8 815.9 L767.9 815.9 L768.9 816.6 L770.0 814.0 L771.0 815.9 L772.0 815.9" fill="none" stroke="#2a78d6" stroke-width="2" stroke-linejoin="round"/>
<text x="781.0" y="819.9" font-family="ui-monospace,'SF Mono',Menlo,Consolas,monospace" font-size="12" font-weight="600" fill="#2a78d6">NUPC 0.6%</text>
<text x="781.0" y="864.7" font-family="ui-monospace,'SF Mono',Menlo,Consolas,monospace" font-size="12" font-weight="600" fill="#eb6834">JUCE 0.2%</text>
<text x="58.0" y="608.1" font-family="ui-monospace,'SF Mono',Menlo,Consolas,monospace" font-size="12" font-weight="600" fill="#eb6834">96%</text>
</svg>