<svg xmlns="http://www.w3.org/2000/svg" viewBox="0 0 880 916" width="880" height="916" font-family="system-ui,-apple-system,'Segoe UI',Roboto,sans-serif">
<rect x="0" y="0" width="880" height="916" rx="14" fill="#ffffff" stroke="#dde3e9"/>
<text x="28" y="34" font-family="system-ui,-apple-system,'Segoe UI',Roboto,sans-serif" font-size="19" font-weight="700" fill="#1a2230">Convolver CPU across the full DAW buffer range</text>
<text x="28" y="55" font-family="ui-monospace,'SF Mono',Menlo,Consolas,monospace" font-size="11.5" fill="#8a95a0">MatrixConvolverNupc vs juce::dsp::Convolution 8.0.4 · 131072-tap stereo (LRDiag) · 48 kHz · mean of 3–10 warmed windows</text>
<line x1="28" y1="76" x2="50" y2="76" stroke="#2a78d6" stroke-width="2.6" opacity="1"/>
<text x="56" y="80" font-family="system-ui,-apple-system,'Segoe UI',Roboto,sans-serif" font-size="12" fill="#55606b">NUPC mean</text>
<line x1="147.0" y1="76" x2="169.0" y2="76" stroke="#2a78d6" stroke-width="8" opacity="0.22"/>
<text x="175.0" y="80" font-family="system-ui,-apple-system,'Segoe UI',Roboto,sans-serif" font-size="12" fill="#55606b">NUPC worst buffer (band)</text>
<line x1="371.0" y1="76" x2="393.0" y2="76" stroke="#eb6834" stroke-width="2.6" opacity="1"/>
<text x="399.0" y="80" font-family="system-ui,-apple-system,'Segoe UI',Roboto,sans-serif" font-size="12" fill="#55606b">juce::dsp::Convolution (from 16)</text>
<line x1="651.0" y1="76" x2="673.0" y2="76" stroke="#d03b3b" stroke-width="2.6" opacity="1" stroke-dasharray="5 3"/>
<text x="679.0" y="80" font-family="system-ui,-apple-system,'Segoe UI',Roboto,sans-serif" font-size="12" fill="#55606b">100% real-time</text>
<text x="52" y="114" font-family="system-ui,-apple-system,'Segoe UI',Roboto,sans-serif" font-size="16" font-weight="700" fill="#1a2230">Intel i9-13900H</text>
<text x="52" y="132" font-family="ui-monospace,'SF Mono',Menlo,Consolas,monospace" font-size="11.5" fill="#8a95a0">Debian 13 · gcc 14 · pffft/SSE · P-core pinned</text>
<text x="52" y="148" font-family="ui-monospace,'SF Mono',Menlo,Consolas,monospace" font-size="11.5" fill="#55606b">NUPC flat mean 1.09%  ·  JUCE 0.54–72%  ·  NUPC cheaper up to ~6144 samples  ·  0 ms latency</text>
<rect x="52.0" y="158.0" width="684.2" height="300" fill="#2a78d6" opacity="0.055"/>
<line x1="736.2" y1="158.0" x2="736.2" y2="458.0" stroke="#8a95a0" stroke-width="1" stroke-dasharray="4 4" opacity="0.5"/>
<text x="58.0" y="172.0" font-family="ui-monospace,'SF Mono',Menlo,Consolas,monospace" font-size="11" fill="#2a78d6">◄ NUPC cheaper (mean)</text>
<line x1="52.0" y1="430.6" x2="772.0" y2="430.6" stroke="#e6ebf0" stroke-width="1"/>
<text x="44.0" y="434.6" font-family="ui-monospace,'SF Mono',Menlo,Consolas,monospace" font-size="11" fill="#8a95a0" text-anchor="end">0.3%</text>
<line x1="52.0" y1="383.1" x2="772.0" y2="383.1" stroke="#e6ebf0" stroke-width="1"/>
<text x="44.0" y="387.1" font-family="ui-monospace,'SF Mono',Menlo,Consolas,monospace" font-size="11" fill="#8a95a0" text-anchor="end">1%</text>
<line x1="52.0" y1="339.8" x2="772.0" y2="339.8" stroke="#e6ebf0" stroke-width="1"/>
<text x="44.0" y="343.8" font-family="ui-monospace,'SF Mono',Menlo,Consolas,monospace" font-size="11" fill="#8a95a0" text-anchor="end">3%</text>
<line x1="52.0" y1="292.2" x2="772.0" y2="292.2" stroke="#e6ebf0" stroke-width="1"/>
<text x="44.0" y="296.2" font-family="ui-monospace,'SF Mono',Menlo,Consolas,monospace" font-size="11" fill="#8a95a0" text-anchor="end">10%</text>
<line x1="52.0" y1="248.9" x2="772.0" y2="248.9" stroke="#e6ebf0" stroke-width="1"/>
<text x="44.0" y="252.9" font-family="ui-monospace,'SF Mono',Menlo,Consolas,monospace" font-size="11" fill="#8a95a0" text-anchor="end">30%</text>
<line x1="52.0" y1="201.4" x2="772.0" y2="201.4" stroke="#d03b3b" stroke-width="1.4" stroke-dasharray="6 4"/>
<text x="44.0" y="205.4" font-family="ui-monospace,'SF Mono',Menlo,Consolas,monospace" font-size="11" fill="#8a95a0" text-anchor="end">100%</text>
<line x1="52.0" y1="158.0" x2="772.0" y2="158.0" stroke="#e6ebf0" stroke-width="1"/>
<text x="44.0" y="162.0" font-family="ui-monospace,'SF Mono',Menlo,Consolas,monospace" font-size="11" fill="#8a95a0" text-anchor="end">300%</text>
<text x="770.0" y="196.4" font-family="ui-monospace,'SF Mono',Menlo,Consolas,monospace" font-size="11" fill="#d03b3b" text-anchor="end">100% real-time</text>
<text x="52.0" y="477.0" font-family="ui-monospace,'SF Mono',Menlo,Consolas,monospace" font-size="11" fill="#8a95a0" text-anchor="middle">4</text>
<text x="117.5" y="477.0" font-family="ui-monospace,'SF Mono',Menlo,Consolas,monospace" font-size="11" fill="#8a95a0" text-anchor="middle">8</text>
<text x="182.9" y="477.0" font-family="ui-monospace,'SF Mono',Menlo,Consolas,monospace" font-size="11" fill="#8a95a0" text-anchor="middle">16</text>
<text x="248.4" y="477.0" font-family="ui-monospace,'SF Mono',Menlo,Consolas,monospace" font-size="11" fill="#8a95a0" text-anchor="middle">32</text>
<text x="313.8" y="477.0" font-family="ui-monospace,'SF Mono',Menlo,Consolas,monospace" font-size="11" fill="#8a95a0" text-anchor="middle">64</text>
<text x="379.3" y="477.0" font-family="ui-monospace,'SF Mono',Menlo,Consolas,monospace" font-size="11" fill="#8a95a0" text-anchor="middle">128</text>
<text x="444.7" y="477.0" font-family="ui-monospace,'SF Mono',Menlo,Consolas,monospace" font-size="11" fill="#8a95a0" text-anchor="middle">256</text>
<text x="510.2" y="477.0" font-family="ui-monospace,'SF Mono',Menlo,Consolas,monospace" font-size="11" fill="#8a95a0" text-anchor="middle">512</text>
<text x="575.6" y="477.0" font-family="ui-monospace,'SF Mono',Menlo,Consolas,monospace" font-size="11" fill="#8a95a0" text-anchor="middle">1024</text>
<text x="641.1" y="477.0" font-family="ui-monospace,'SF Mono',Menlo,Consolas,monospace" font-size="11" fill="#8a95a0" text-anchor="middle">2048</text>
<text x="706.5" y="477.0" font-family="ui-monospace,'SF Mono',Menlo,Consolas,monospace" font-size="11" fill="#8a95a0" text-anchor="middle">4096</text>
<text x="772.0" y="477.0" font-family="ui-monospace,'SF Mono',Menlo,Consolas,monospace" font-size="11" fill="#8a95a0" text-anchor="middle">8192</text>
<text x="412.0" y="496.0" font-family="ui-monospace,'SF Mono',Menlo,Consolas,monospace" font-size="11" fill="#55606b" text-anchor="middle">host buffer size (samples, log scale · &lt;16 = synthetic, not a real host buffer)</text>
<path d="M52.0 379.0 L90.3 379.4 L117.5 379.7 L138.5 379.7 L155.7 379.7 L170.3 379.7 L182.9 380.1 L204.0 379.7 L221.2 379.7 L235.8 379.7 L248.4 379.7 L269.4 379.7 L286.7 379.7 L301.2 379.7 L313.8 380.1 L334.9 379.7 L352.1 379.7 L366.7 379.7 L379.3 379.7 L400.3 379.7 L417.6 379.7 L432.1 379.7 L444.7 380.1 L465.8 379.7 L483.0 380.1 L497.6 379.7 L510.2 380.1 L531.3 379.7 L548.5 380.1 L563.0 379.7 L575.6 379.7 L596.7 379.7 L613.9 380.1 L628.5 380.5 L641.1 380.5 L662.2 379.7 L679.4 380.1 L693.9 379.7 L706.5 379.7 L727.6 380.1 L744.8 380.1 L759.4 379.7 L772.0 380.1 L772.0 380.1 L759.4 378.3 L744.8 379.7 L727.6 378.0 L706.5 379.4 L693.9 378.0 L679.4 376.6 L662.2 374.0 L641.1 379.7 L628.5 375.9 L613.9 375.9 L596.7 373.1 L575.6 370.4 L563.0 367.9 L548.5 366.1 L531.3 360.8 L510.2 356.8 L497.6 353.3 L483.0 350.1 L465.8 344.5 L444.7 339.5 L432.1 333.7 L417.6 328.2 L400.3 322.7 L379.3 315.0 L366.7 310.4 L352.1 302.4 L334.9 298.4 L313.8 290.2 L301.2 286.5 L286.7 279.4 L269.4 272.5 L248.4 264.3 L235.8 260.3 L221.2 252.9 L204.0 245.7 L182.9 238.9 L170.3 232.4 L155.7 225.7 L138.5 219.0 L117.5 210.0 L90.3 198.5 L52.0 183.2 Z" fill="#2a78d6" opacity="0.10"/>
<path d="M182.9 214.6 L204.0 246.2 L221.2 246.4 L235.8 247.2 L248.4 247.4 L269.4 279.9 L286.7 280.5 L301.2 280.8 L313.8 282.6 L334.9 307.6 L352.1 309.2 L366.7 309.2 L379.3 313.5 L400.3 323.1 L417.6 324.1 L432.1 324.2 L444.7 327.2 L465.8 347.8 L483.0 349.9 L497.6 350.1 L510.2 355.8 L531.3 362.4 L548.5 365.8 L563.0 366.1 L575.6 377.3 L596.7 373.7 L613.9 378.3 L628.5 378.3 L641.1 394.5 L662.2 371.3 L679.4 378.0 L693.9 377.3 L706.5 398.9 L727.6 378.3 L744.8 384.7 L759.4 384.7 L772.0 407.4" fill="none" stroke="#eb6834" stroke-width="2" stroke-linejoin="round"/>
<path d="M52.0 379.0 L90.3 379.4 L117.5 379.7 L138.5 379.7 L155.7 379.7 L170.3 379.7 L182.9 380.1 L204.0 379.7 L221.2 379.7 L235.8 379.7 L248.4 379.7 L269.4 379.7 L286.7 379.7 L301.2 379.7 L313.8 380.1 L334.9 379.7 L352.1 379.7 L366.7 379.7 L379.3 379.7 L400.3 379.7 L417.6 379.7 L432.1 379.7 L444.7 380.1 L465.8 379.7 L483.0 380.1 L497.6 379.7 L510.2 380.1 L531.3 379.7 L548.5 380.1 L563.0 379.7 L575.6 379.7 L596.7 379.7 L613.9 380.1 L628.5 380.5 L641.1 380.5 L662.2 379.7 L679.4 380.1 L693.9 379.7 L706.5 379.7 L727.6 380.1 L744.8 380.1 L759.4 379.7 L772.0 380.1" fill="none" stroke="#2a78d6" stroke-width="2" stroke-linejoin="round"/>
<text x="781.0" y="384.1" font-family="ui-monospace,'SF Mono',Menlo,Consolas,monospace" font-size="12" font-weight="600" fill="#2a78d6">NUPC 1.1%</text>
<text x="781.0" y="411.4" font-family="ui-monospace,'SF Mono',Menlo,Consolas,monospace" font-size="12" font-weight="600" fill="#eb6834">JUCE 0.5%</text>
<text x="186.9" y="207.6" font-family="ui-monospace,'SF Mono',Menlo,Consolas,monospace" font-size="12" font-weight="600" fill="#eb6834">72%</text>
<text x="52" y="526" font-family="system-ui,-apple-system,'Segoe UI',Roboto,sans-serif" font-size="16" font-weight="700" fill="#1a2230">Apple M5 Pro</text>
<text x="52" y="544" font-family="ui-monospace,'SF Mono',Menlo,Consolas,monospace" font-size="11.5" fill="#8a95a0">macOS · pffft/NEON · P-core</text>
<text x="52" y="560" font-family="ui-monospace,'SF Mono',Menlo,Consolas,monospace" font-size="11.5" fill="#55606b">NUPC flat mean 0.61%  ·  JUCE 0.15–108%  ·  NUPC cheaper up to ~640 samples  ·  0 ms latency</text>
<rect x="52.0" y="570.0" width="468.7" height="300" fill="#2a78d6" opacity="0.055"/>
<line x1="520.7" y1="570.0" x2="520.7" y2="870.0" stroke="#8a95a0" stroke-width="1" stroke-dasharray="4 4" opacity="0.5"/>
<text x="58.0" y="584.0" font-family="ui-monospace,'SF Mono',Menlo,Consolas,monospace" font-size="11" fill="#2a78d6">◄ NUPC cheaper (mean)</text>
<text x="527.7" y="584.0" font-family="ui-monospace,'SF Mono',Menlo,Consolas,monospace" font-size="11" fill="#eb6834">JUCE cheaper ►</text>
<line x1="52.0" y1="842.6" x2="772.0" y2="842.6" stroke="#e6ebf0" stroke-width="1"/>
<text x="44.0" y="846.6" font-family="ui-monospace,'SF Mono',Menlo,Consolas,monospace" font-size="11" fill="#8a95a0" text-anchor="end">0.3%</text>
<line x1="52.0" y1="795.1" x2="772.0" y2="795.1" stroke="#e6ebf0" stroke-width="1"/>
<text x="44.0" y="799.1" font-family="ui-monospace,'SF Mono',Menlo,Consolas,monospace" font-size="11" fill="#8a95a0" text-anchor="end">1%</text>
<line x1="52.0" y1="751.8" x2="772.0" y2="751.8" stroke="#e6ebf0" stroke-width="1"/>
<text x="44.0" y="755.8" font-family="ui-monospace,'SF Mono',Menlo,Consolas,monospace" font-size="11" fill="#8a95a0" text-anchor="end">3%</text>
<line x1="52.0" y1="704.2" x2="772.0" y2="704.2" stroke="#e6ebf0" stroke-width="1"/>
<text x="44.0" y="708.2" font-family="ui-monospace,'SF Mono',Menlo,Consolas,monospace" font-size="11" fill="#8a95a0" text-anchor="end">10%</text>
<line x1="52.0" y1="660.9" x2="772.0" y2="660.9" stroke="#e6ebf0" stroke-width="1"/>
<text x="44.0" y="664.9" font-family="ui-monospace,'SF Mono',Menlo,Consolas,monospace" font-size="11" fill="#8a95a0" text-anchor="end">30%</text>
<line x1="52.0" y1="613.4" x2="772.0" y2="613.4" stroke="#d03b3b" stroke-width="1.4" stroke-dasharray="6 4"/>
<text x="44.0" y="617.4" font-family="ui-monospace,'SF Mono',Menlo,Consolas,monospace" font-size="11" fill="#8a95a0" text-anchor="end">100%</text>
<line x1="52.0" y1="570.0" x2="772.0" y2="570.0" stroke="#e6ebf0" stroke-width="1"/>
<text x="44.0" y="574.0" font-family="ui-monospace,'SF Mono',Menlo,Consolas,monospace" font-size="11" fill="#8a95a0" text-anchor="end">300%</text>
<text x="770.0" y="608.4" font-family="ui-monospace,'SF Mono',Menlo,Consolas,monospace" font-size="11" fill="#d03b3b" text-anchor="end">100% real-time</text>
<text x="52.0" y="889.0" font-family="ui-monospace,'SF Mono',Menlo,Consolas,monospace" font-size="11" fill="#8a95a0" text-anchor="middle">4</text>
<text x="117.5" y="889.0" font-family="ui-monospace,'SF Mono',Menlo,Consolas,monospace" font-size="11" fill="#8a95a0" text-anchor="middle">8</text>
<text x="182.9" y="889.0" font-family="ui-monospace,'SF Mono',Menlo,Consolas,monospace" font-size="11" fill="#8a95a0" text-anchor="middle">16</text>
<text x="248.4" y="889.0" font-family="ui-monospace,'SF Mono',Menlo,Consolas,monospace" font-size="11" fill="#8a95a0" text-anchor="middle">32</text>
<text x="313.8" y="889.0" font-family="ui-monospace,'SF Mono',Menlo,Consolas,monospace" font-size="11" fill="#8a95a0" text-anchor="middle">64</text>
<text x="379.3" y="889.0" font-family="ui-monospace,'SF Mono',Menlo,Consolas,monospace" font-size="11" fill="#8a95a0" text-anchor="middle">128</text>
<text x="444.7" y="889.0" font-family="ui-monospace,'SF Mono',Menlo,Consolas,monospace" font-size="11" fill="#8a95a0" text-anchor="middle">256</text>
<text x="510.2" y="889.0" font-family="ui-monospace,'SF Mono',Menlo,Consolas,monospace" font-size="11" fill="#8a95a0" text-anchor="middle">512</text>
<text x="575.6" y="889.0" font-family="ui-monospace,'SF Mono',Menlo,Consolas,monospace" font-size="11" fill="#8a95a0" text-anchor="middle">1024</text>
<text x="641.1" y="889.0" font-family="ui-monospace,'SF Mono',Menlo,Consolas,monospace" font-size="11" fill="#8a95a0" text-anchor="middle">2048</text>
<text x="706.5" y="889.0" font-family="ui-monospace,'SF Mono',Menlo,Consolas,monospace" font-size="11" fill="#8a95a0" text-anchor="middle">4096</text>
<text x="772.0" y="889.0" font-family="ui-monospace,'SF Mono',Menlo,Consolas,monospace" font-size="11" fill="#8a95a0" text-anchor="middle">8192</text>
<text x="412.0" y="908.0" font-family="ui-monospace,'SF Mono',Menlo,Consolas,monospace" font-size="11" fill="#55606b" text-anchor="middle">host buffer size (samples, log scale · &lt;16 = synthetic, not a real host buffer)</text>
<path d="M52.0 809.8 L90.3 815.3 L117.5 815.9 L138.5 816.6 L155.7 816.6 L170.3 814.0 L182.9 814.6 L204.0 814.6 L221.2 812.7 L235.8 814.6 L248.4 814.6 L269.4 815.3 L286.7 814.6 L301.2 814.6 L313.8 815.9 L334.9 815.9 L352.1 815.9 L366.7 815.9 L379.3 814.0 L400.3 813.4 L417.6 814.6 L432.1 815.3 L444.7 814.6 L465.8 815.9 L483.0 815.3 L497.6 814.6 L510.2 814.0 L531.3 813.4 L548.5 814.6 L563.0 814.0 L575.6 813.4 L596.7 814.0 L613.9 814.0 L628.5 814.6 L641.1 813.4 L662.2 814.6 L679.4 814.0 L693.9 813.4 L706.5 815.9 L727.6 813.4 L744.8 815.3 L759.4 814.6 L772.0 812.7 L772.0 807.5 L759.4 811.5 L744.8 807.5 L727.6 810.3 L706.5 807.5 L693.9 799.7 L679.4 809.2 L662.2 807.5 L641.1 809.8 L628.5 799.7 L613.9 804.4 L596.7 798.8 L575.6 790.0 L563.0 798.4 L548.5 794.7 L531.3 788.6 L510.2 783.6 L497.6 783.3 L483.0 783.0 L465.8 777.8 L444.7 771.3 L432.1 765.5 L417.6 730.7 L400.3 744.8 L379.3 727.8 L366.7 738.4 L352.1 731.5 L334.9 725.1 L313.8 695.2 L301.2 716.3 L286.7 701.6 L269.4 685.8 L248.4 657.7 L235.8 689.5 L221.2 666.1 L204.0 673.8 L182.9 659.5 L170.3 658.9 L155.7 652.1 L138.5 639.4 L117.5 630.9 L90.3 620.3 L52.0 596.7 Z" fill="#2a78d6" opacity="0.10"/>
<path d="M182.9 610.4 L204.0 655.3 L221.2 655.2 L235.8 658.6 L248.4 658.9 L269.4 702.6 L286.7 705.1 L301.2 705.9 L313.8 705.4 L334.9 750.7 L352.1 750.9 L366.7 750.1 L379.3 752.6 L400.3 766.4 L417.6 768.0 L432.1 767.6 L444.7 769.0 L465.8 794.0 L483.0 795.1 L497.6 795.9 L510.2 795.9 L531.3 814.6 L548.5 820.2 L563.0 820.2 L575.6 824.1 L596.7 834.4 L613.9 836.6 L628.5 836.6 L641.1 844.0 L662.2 845.4 L679.4 849.8 L693.9 848.3 L706.5 862.8 L727.6 845.4 L744.8 849.8 L759.4 851.4 L772.0 870.0" fill="none" stroke="#eb6834" stroke-width="2" stroke-linejoin="round"/>
<path d="M52.0 809.8 L90.3 815.3 L117.5 815.9 L138.5 816.6 L155.7 816.6 L170.3 814.0 L182.9 814.6 L204.0 814.6 L221.2 812.7 L235.8 814.6 L248.4 814.6 L269.4 815.3 L286.7 814.6 L301.2 814.6 L313.8 815.9 L334.9 815.9 L352.1 815.9 L366.7 815.9 L379.3 814.0 L400.3 813.4 L417.6 814.6 L432.1 815.3 L444.7 814.6 L465.8 815.9 L483.0 815.3 L497.6 814.6 L510.2 814.0 L531.3 813.4 L548.5 814.6 L563.0 814.0 L575.6 813.4 L596.7 814.0 L613.9 814.0 L628.5 814.6 L641.1 813.4 L662.2 814.6 L679.4 814.0 L693.9 813.4 L706.5 815.9 L727.6 813.4 L744.8 815.3 L759.4 814.6 L772.0 812.7" fill="none" stroke="#2a78d6" stroke-width="2" stroke-linejoin="round"/>
<text x="781.0" y="816.7" font-family="ui-monospace,'SF Mono',Menlo,Consolas,monospace" font-size="12" font-weight="600" fill="#2a78d6">NUPC 0.6%</text>
<text x="781.0" y="874.0" font-family="ui-monospace,'SF Mono',Menlo,Consolas,monospace" font-size="12" font-weight="600" fill="#eb6834">JUCE 0.1%</text>
<text x="186.9" y="603.4" font-family="ui-monospace,'SF Mono',Menlo,Consolas,monospace" font-size="12" font-weight="600" fill="#eb6834">108%</text>
</svg>